<?xml version="1.0" encoding="UTF-8" standalone="no"?>
<svg
   xmlns:dc="http://purl.org/dc/elements/1.1/"
   xmlns:cc="http://creativecommons.org/ns#"
   xmlns:rdf="http://www.w3.org/1999/02/22-rdf-syntax-ns#"
   xmlns:svg="http://www.w3.org/2000/svg"
   xmlns="http://www.w3.org/2000/svg"
   xmlns:sodipodi="http://sodipodi.sourceforge.net/DTD/sodipodi-0.dtd"
   xmlns:inkscape="http://www.inkscape.org/namespaces/inkscape"
   id="svg3390"
   height="202.67953"
   width="196.74063"
   version="1.1"
   viewBox="0 0 196.73728 202.68033"
   inkscape:version="0.92.0 r15299"
   sodipodi:docname="radioOPxNota1.svg">
  <defs
     id="defs49" />
  <sodipodi:namedview
     pagecolor="#ffffff"
     bordercolor="#666666"
     borderopacity="1"
     objecttolerance="10"
     gridtolerance="10"
     guidetolerance="10"
     inkscape:pageopacity="0"
     inkscape:pageshadow="2"
     inkscape:window-width="1920"
     inkscape:window-height="1017"
     id="namedview47"
     showgrid="false"
     inkscape:zoom="2.3459245"
     inkscape:cx="-4.3832811"
     inkscape:cy="67.071398"
     inkscape:window-x="-8"
     inkscape:window-y="-8"
     inkscape:window-maximized="1"
     inkscape:current-layer="svg3390"
     fit-margin-top="0"
     fit-margin-left="0"
     fit-margin-right="0"
     fit-margin-bottom="0"
     showguides="false" />
  <metadata
     id="metadata3396">
    <rdf:RDF>
      <cc:Work
         rdf:about="">
        <dc:format>image/svg+xml</dc:format>
        <dc:type
           rdf:resource="http://purl.org/dc/dcmitype/StillImage" />
        <dc:title></dc:title>
      </cc:Work>
    </rdf:RDF>
  </metadata>
  <g
     id="nota1"
     transform="translate(-9.1540257,-428.31743)">
    <g
       id="g28">
      <g
         id="g24">
        <path
           id="path5422"
           transform="matrix(0.87323,-0.4873,0.4873,0.87323,0,0)"
           d="m -272.39,562.77 a 3.7853,2.66 0 0 1 -4.645,1.7474 3.7853,2.66 0 0 1 -2.631,-3.2077 3.7853,2.66 0 0 1 4.48,-1.9485 3.7853,2.66 0 0 1 2.9119,3.0855"
           inkscape:connector-curvature="0" />
        <path
           id="path5422-3"
           transform="matrix(0.92711,-0.37479,0.30956,0.95088,0,0)"
           d="m -143.56,597.86 a 3.7373,3.0164 0 0 1 -4.586,1.9815 3.7373,3.0164 0 0 1 -2.5977,-3.6375 3.7373,3.0164 0 0 1 4.4232,-2.2096 3.7373,3.0164 0 0 1 2.875,3.499"
           inkscape:connector-curvature="0" />
        <rect
           id="rect5447"
           ry="0"
           transform="matrix(0.98974434,-0.14285005,0.14285005,0.98974434,0,0)"
           height="5.3199"
           width="17.801001"
           y="603.16998"
           x="-54.889999" />
      </g>
      <path
         id="path5449"
         d="M 34.784,624.81 32.943,609.46"
         inkscape:connector-curvature="0"
         style="fill:none;stroke:#000000;stroke-width:1px" />
      <path
         id="path5451"
         d="M 51.358,621.74 49.107,606.59"
         inkscape:connector-curvature="0"
         style="fill:none;stroke:#000000;stroke-width:1px" />
    </g>
   
  </g>
  <g
     id="nota3"
     transform="translate(-11.829916,-437.76869)">
    <g
       id="g33">
      <path
         id="path5453"
         transform="matrix(0.92436,-0.38151,0.38151,0.92436,0,0)"
         d="m -162.45,595.45 a 4.3992,3.3761 0 0 1 -5.3982,2.2178 4.3992,3.3761 0 0 1 -3.0577,-4.0713 4.3992,3.3761 0 0 1 5.2065,-2.4731 4.3992,3.3761 0 0 1 3.3841,3.9162"
         inkscape:connector-curvature="0" />
      <path
         id="path5455"
         d="m 76.116,611.71 -4.9107,-17.392 c 5.3387,1.045 9.5162,3.7488 11.049,10.231 0.41037,-3.9579 0.42732,-8.8412 -5.1153,-11.868 -2.2084,-2.1794 -2.1492,-2.3834 -7.7753,-3.683 z"
         inkscape:connector-curvature="0"
         style="fill-rule:evenodd;stroke:#000000;stroke-width:1px" />
    </g>
    
  </g>
  <g
     id="nota2"
     transform="matrix(0.80477,0.59359,-0.59359,0.80477,346.6873,-414.11636)">
    <g
       id="g35">
      <path
         id="path5453-7"
         transform="matrix(0.92436,-0.38151,0.38151,0.92436,0,0)"
         d="m -162.45,595.45 a 4.3992,3.3761 0 0 1 -5.3982,2.2178 4.3992,3.3761 0 0 1 -3.0577,-4.0713 4.3992,3.3761 0 0 1 5.2065,-2.4731 4.3992,3.3761 0 0 1 3.3841,3.9162"
         inkscape:connector-curvature="0" />
      <path
         id="path5455-5"
         d="m 76.116,611.71 -4.9107,-17.392 c 5.3387,1.045 9.5162,3.7488 11.049,10.231 0.41037,-3.9579 0.42732,-8.8412 -5.1153,-11.868 -2.2084,-2.1794 -2.1492,-2.3834 -7.7753,-3.683 z"
         inkscape:connector-curvature="0"
         style="fill-rule:evenodd;stroke:#000000;stroke-width:1px" />
      
    </g>
  </g>
  <g
     id="nota4"
     transform="translate(61.475032,-493.59344)">
    <g
       id="g40">
      <path
         id="path5422-5"
         transform="matrix(0.87323,-0.4873,0.4873,0.87323,0,0)"
         d="m -272.39,562.77 a 3.7853,2.66 0 0 1 -4.645,1.7474 3.7853,2.66 0 0 1 -2.631,-3.2077 3.7853,2.66 0 0 1 4.48,-1.9485 3.7853,2.66 0 0 1 2.9119,3.0855"
         inkscape:connector-curvature="0" />
      <path
         id="path5422-3-6"
         transform="matrix(0.92711,-0.37479,0.30956,0.95088,0,0)"
         d="m -143.56,597.86 a 3.7373,3.0164 0 0 1 -4.586,1.9815 3.7373,3.0164 0 0 1 -2.5977,-3.6375 3.7373,3.0164 0 0 1 4.4232,-2.2096 3.7373,3.0164 0 0 1 2.875,3.499"
         inkscape:connector-curvature="0" />
      <rect
         id="rect5447-2"
         ry="0"
         transform="rotate(-8.2128001)"
         height="5.3199"
         width="17.801001"
         y="603.16998"
         x="-54.889999" />
      
    </g>
    <path
       id="path5449-9"
       d="M 34.784,624.81 32.943,609.46"
       inkscape:connector-curvature="0"
       style="fill:none;stroke:#000000;stroke-width:1px" />
    <path
       id="path5451-1"
       d="M 51.358,621.74 49.107,606.59"
       inkscape:connector-curvature="0"
       style="fill:none;stroke:#000000;stroke-width:1px" />
  </g>
</svg>
