<?xml version="1.0" encoding="UTF-8" standalone="no"?>
<svg
   xmlns:dc="http://purl.org/dc/elements/1.1/"
   xmlns:cc="http://creativecommons.org/ns#"
   xmlns:rdf="http://www.w3.org/1999/02/22-rdf-syntax-ns#"
   xmlns:svg="http://www.w3.org/2000/svg"
   xmlns="http://www.w3.org/2000/svg"
   xmlns:sodipodi="http://sodipodi.sourceforge.net/DTD/sodipodi-0.dtd"
   xmlns:inkscape="http://www.inkscape.org/namespaces/inkscape"
   id="svg3390"
   height="202.67953"
   width="196.74063"
   version="1.1"
   viewBox="0 0 196.73728 202.68033"
   inkscape:version="0.92.0 r15299"
   sodipodi:docname="radioOPxR.svg">
  <defs
     id="defs49" />
  <sodipodi:namedview
     pagecolor="#ffffff"
     bordercolor="#666666"
     borderopacity="1"
     objecttolerance="10"
     gridtolerance="10"
     guidetolerance="10"
     inkscape:pageopacity="0"
     inkscape:pageshadow="2"
     inkscape:window-width="1920"
     inkscape:window-height="1017"
     id="namedview47"
     showgrid="false"
     inkscape:zoom="2.3459245"
     inkscape:cx="54.655277"
     inkscape:cy="67.071398"
     inkscape:window-x="-8"
     inkscape:window-y="-8"
     inkscape:window-maximized="1"
     inkscape:current-layer="svg3390"
     fit-margin-top="0"
     fit-margin-left="0"
     fit-margin-right="0"
     fit-margin-bottom="0" />
  <metadata
     id="metadata3396">
    <rdf:RDF>
      <cc:Work
         rdf:about="">
        <dc:format>image/svg+xml</dc:format>
        <dc:type
           rdf:resource="http://purl.org/dc/dcmitype/StillImage" />
        <dc:title></dc:title>
      </cc:Work>
    </rdf:RDF>
  </metadata>
  <g
     id="radio"
     transform="translate(-173.51233,-477.41758)">
    <path
       id="path5525"
       d="m 216.84,536.92 -6.293,-6.7441 -0.78711,0.2207 c -9.1329,0.58257 -19.65,-0.56079 -26.816,5.9922 -7.539,4.1566 -6.0819,12.381 -8.5879,19.004 l -0.3457,13.502 0.3457,91.408 17.654,17.82 161.46,0 16.037,-17.016 0.24414,-100.63 -18.852,-17.506 -133.43,0.12305 -1.2227,-5.998 0.5918,-0.17968 z"
       inkscape:connector-curvature="0"
       style="fill-rule:evenodd;stroke:#000000;stroke-width:1px" />
    <g
       id="g6"
       style="fill:#ffffff;stroke:#000000">
      <g
         id="g8"
         style="fill-rule:evenodd;stroke-width:1px">
        <path
           id="path3402"
           d="m 196.69,558.33 0,30.296 97.295,0 0,-30.816 z"
           inkscape:connector-curvature="0" />
        <path
           id="path3404"
           d="m 302.64,557.98 0,30.469 45.358,0 0,-30.469 z"
           inkscape:connector-curvature="0" />
        <path
           id="path3406"
           d="m 198.18,653.84 -0.24484,-41.021 c 1.8654,-2.7989 3.1099,-3.7052 4.1908,-3.8384 2.7211,0.08 3.7552,1.8683 4.8833,3.4834 l -0.53676,42.397 c -2.4836,4.9831 -7.0118,3.6161 -8.2924,-1.0213 z"
           inkscape:connector-curvature="0" />
        <path
           id="path3406-7"
           d="m 211.79,653.79 -0.24484,-41.021 c 1.8654,-2.7989 3.1099,-3.7052 4.1908,-3.8384 2.7211,0.08 3.7552,1.8683 4.8833,3.4834 l -0.53676,42.397 c -2.4836,4.9831 -7.0118,3.6161 -8.2924,-1.0213 z"
           inkscape:connector-curvature="0" />
        <path
           id="path3406-9"
           d="m 226.88,653.63 -0.24484,-41.021 c 1.8654,-2.7989 3.1099,-3.7052 4.1908,-3.8384 2.7211,0.08 3.7552,1.8683 4.8833,3.4834 l -0.53676,42.397 c -2.4836,4.9831 -7.0118,3.6161 -8.2924,-1.0213 z"
           inkscape:connector-curvature="0" />
        <path
           id="path3406-7-1"
           d="m 240.49,653.69 -0.24484,-41.021 c 1.8654,-2.7989 3.1099,-3.7052 4.1908,-3.8384 2.7211,0.08 3.7552,1.8683 4.8833,3.4834 l -0.53676,42.397 c -2.4836,4.9831 -7.0118,3.6161 -8.2924,-1.0213 z"
           inkscape:connector-curvature="0" />
        <path
           id="path3406-3"
           d="m 254.4,653.86 -0.24483,-41.021 c 1.8654,-2.7989 3.1099,-3.7052 4.1908,-3.8384 2.7211,0.08 3.7552,1.8683 4.8833,3.4834 l -0.53677,42.397 c -2.4836,4.9831 -7.0118,3.6161 -8.2924,-1.0213 z"
           inkscape:connector-curvature="0" />
        <path
           id="path3406-7-6"
           d="m 267.64,653.8 -0.24484,-41.021 c 1.8654,-2.7989 3.1099,-3.7052 4.1908,-3.8384 2.7211,0.08 3.7552,1.8683 4.8833,3.4834 l -0.53676,42.397 c -2.4836,4.9831 -7.0118,3.6161 -8.2924,-1.0213 z"
           inkscape:connector-curvature="0" />
      </g>
      <path
         id="path3581"
         d="m 351.4,641.35 a 25.585,25.585 0 0 1 -32.141,16.582 25.585,25.585 0 0 1 -16.611,-32.125 25.585,25.585 0 0 1 32.11,-16.641 25.585,25.585 0 0 1 16.67,32.095"
         inkscape:connector-curvature="0" />
    </g>
    <path
       id="path3564"
       d="m 339.99,637.18 a 13.282,13.282 0 0 1 -16.685,8.6084 13.282,13.282 0 0 1 -8.6236,-16.678 13.282,13.282 0 0 1 16.67,-8.6388 13.282,13.282 0 0 1 8.654,16.662"
       inkscape:connector-curvature="0" />
  </g>
</svg>
