<?xml version="1.0" encoding="UTF-8" standalone="no"?>
<svg
   xmlns:dc="http://purl.org/dc/elements/1.1/"
   xmlns:cc="http://creativecommons.org/ns#"
   xmlns:rdf="http://www.w3.org/1999/02/22-rdf-syntax-ns#"
   xmlns:svg="http://www.w3.org/2000/svg"
   xmlns="http://www.w3.org/2000/svg"
   xmlns:sodipodi="http://sodipodi.sourceforge.net/DTD/sodipodi-0.dtd"
   xmlns:inkscape="http://www.inkscape.org/namespaces/inkscape"
   viewBox="0 0 196.74665 201.20079"
   height="56.783333mm"
   width="55.526276mm"
   version="1.1"
   id="svg3390"
   inkscape:version="0.92.0 r15299"
   sodipodi:docname="radio.svg">
  <sodipodi:namedview
     pagecolor="#ffffff"
     bordercolor="#666666"
     borderopacity="1"
     objecttolerance="10"
     gridtolerance="10"
     guidetolerance="10"
     inkscape:pageopacity="0"
     inkscape:pageshadow="2"
     inkscape:window-width="1920"
     inkscape:window-height="1017"
     id="namedview19"
     showgrid="false"
     units="mm"
     inkscape:zoom="3.4558282"
     inkscape:cx="95.966557"
     inkscape:cy="102.46113"
     inkscape:window-x="-8"
     inkscape:window-y="-8"
     inkscape:window-maximized="1"
     inkscape:current-layer="svg3390"
     fit-margin-top="0"
     fit-margin-left="0"
     fit-margin-right="0"
     fit-margin-bottom="0" />
  <metadata
     id="metadata3396">
    <rdf:RDF>
      <cc:Work
         rdf:about="">
        <dc:format>image/svg+xml</dc:format>
        <dc:type
           rdf:resource="http://purl.org/dc/dcmitype/StillImage" />
        <dc:title />
      </cc:Work>
    </rdf:RDF>
  </metadata>
  <defs
     id="defs3394" />
  <path
     id="path4433"
     d=""
     style="fill:#000000;fill-opacity:1;stroke:#000000;stroke-width:0.1731219;stroke-miterlimit:4;stroke-dasharray:none;stroke-opacity:1"
     inkscape:connector-curvature="0" />
  <g
     id="radio"
     transform="translate(-173.5117,-477.41835)">
    <path
       id="path5525"
       d="m 216.8418,536.91602 -6.29297,-6.74414 -0.78711,0.2207 c -9.13289,0.58257 -19.65001,-0.56079 -26.81641,5.99219 -7.53896,4.15661 -6.08189,12.3809 -8.58789,19.0039 l -0.3457,13.50195 0.3457,91.40821 17.6543,17.82031 161.46484,0 16.03711,-17.01562 0.24414,-100.62696 -18.85156,-17.50586 -133.43359,0.12305 -1.22266,-5.99805 0.5918,-0.17968 z"
       style="fill:#000000;fill-rule:evenodd;stroke:#000000;stroke-width:1px;stroke-linecap:butt;stroke-linejoin:miter;stroke-opacity:1"
       inkscape:connector-curvature="0" />
    <path
       style="fill:#ffffff;fill-rule:evenodd;stroke:#000000;stroke-width:1px;stroke-linecap:butt;stroke-linejoin:miter;stroke-opacity:1"
       d="m 196.69067,558.33096 0,30.29633 97.29451,0 0,-30.8157 z"
       id="path3402"
       inkscape:connector-curvature="0" />
    <path
       style="fill:#ffffff;fill-rule:evenodd;stroke:#000000;stroke-width:1px;stroke-linecap:butt;stroke-linejoin:miter;stroke-opacity:1"
       d="m 302.64128,557.98471 0,30.46946 45.35793,0 0,-30.46946 z"
       id="path3404"
       inkscape:connector-curvature="0" />
    <path
       style="fill:#ffffff;fill-rule:evenodd;stroke:#000000;stroke-width:1px;stroke-linecap:butt;stroke-linejoin:miter;stroke-opacity:1"
       d="m 198.18067,653.84355 -0.24484,-41.02119 c 1.86542,-2.79887 3.10987,-3.70523 4.19078,-3.83839 2.72109,0.08 3.75524,1.86829 4.88327,3.48344 l -0.53676,42.39747 c -2.48355,4.98306 -7.01185,3.61613 -8.29245,-1.02133 z"
       id="path3406"
       inkscape:connector-curvature="0" />
    <path
       style="fill:#ffffff;fill-rule:evenodd;stroke:#000000;stroke-width:1px;stroke-linecap:butt;stroke-linejoin:miter;stroke-opacity:1"
       d="m 211.79269,653.78787 -0.24484,-41.02119 c 1.86542,-2.79887 3.10987,-3.70523 4.19078,-3.83839 2.72109,0.08 3.75524,1.86829 4.88327,3.48344 l -0.53676,42.39747 c -2.48355,4.98306 -7.01185,3.61613 -8.29245,-1.02133 z"
       id="path3406-7"
       inkscape:connector-curvature="0" />
    <path
       style="fill:#ffffff;fill-rule:evenodd;stroke:#000000;stroke-width:1px;stroke-linecap:butt;stroke-linejoin:miter;stroke-opacity:1"
       d="m 226.87937,653.62539 -0.24484,-41.02119 c 1.86542,-2.79887 3.10987,-3.70523 4.19078,-3.83839 2.72109,0.08 3.75524,1.86829 4.88327,3.48344 l -0.53676,42.39747 c -2.48355,4.98306 -7.01185,3.61613 -8.29245,-1.02133 z"
       id="path3406-9"
       inkscape:connector-curvature="0" />
    <path
       style="fill:#ffffff;fill-rule:evenodd;stroke:#000000;stroke-width:1px;stroke-linecap:butt;stroke-linejoin:miter;stroke-opacity:1"
       d="m 240.49139,653.69213 -0.24484,-41.02119 c 1.86542,-2.79887 3.10987,-3.70523 4.19078,-3.83839 2.72109,0.08 3.75524,1.86829 4.88327,3.48344 l -0.53676,42.39747 c -2.48355,4.98306 -7.01185,3.61613 -8.29245,-1.02133 z"
       id="path3406-7-1"
       inkscape:connector-curvature="0" />
    <path
       style="fill:#ffffff;fill-rule:evenodd;stroke:#000000;stroke-width:1px;stroke-linecap:butt;stroke-linejoin:miter;stroke-opacity:1"
       d="m 254.39617,653.85689 -0.24483,-41.02119 c 1.86542,-2.79887 3.10987,-3.70523 4.19078,-3.83839 2.72109,0.08 3.75524,1.86829 4.88327,3.48344 l -0.53677,42.39747 c -2.48355,4.98306 -7.01184,3.61613 -8.29245,-1.02133 z"
       id="path3406-3"
       inkscape:connector-curvature="0" />
    <path
       style="fill:#ffffff;fill-rule:evenodd;stroke:#000000;stroke-width:1px;stroke-linecap:butt;stroke-linejoin:miter;stroke-opacity:1"
       d="m 267.64095,653.80121 -0.24484,-41.02119 c 1.86542,-2.79887 3.10987,-3.70523 4.19078,-3.83839 2.72109,0.08 3.75524,1.86829 4.88327,3.48344 l -0.53676,42.39747 c -2.48355,4.98306 -7.01185,3.61613 -8.29245,-1.02133 z"
       id="path3406-7-6"
       inkscape:connector-curvature="0" />
    <path
       style="fill:#ffffff;fill-opacity:1;stroke:#000000;stroke-width:1;stroke-miterlimit:4;stroke-dasharray:none;stroke-opacity:1"
       id="path3581"
       d="m 351.40437,641.35297 a 25.584875,25.584875 0 0 1 -32.14051,16.58208 25.584875,25.584875 0 0 1 -16.61138,-32.12537 25.584875,25.584875 0 0 1 32.11021,-16.64068 25.584875,25.584875 0 0 1 16.66995,32.09503"
       inkscape:connector-curvature="0" />
    <path
       style="fill:#000000"
       id="path3564"
       d="m 339.99238,637.17675 a 13.282101,13.282101 0 0 1 -16.68538,8.6084 13.282101,13.282101 0 0 1 -8.62362,-16.67753 13.282101,13.282101 0 0 1 16.66966,-8.63882 13.282101,13.282101 0 0 1 8.65401,16.66177"
       inkscape:connector-curvature="0" />
  </g>
</svg>
