<?xml version="1.0" encoding="UTF-8" standalone="no"?>
<!-- Created with Inkscape (http://www.inkscape.org/) -->
<svg id="svg2" xmlns:rdf="http://www.w3.org/1999/02/22-rdf-syntax-ns#" xmlns="http://www.w3.org/2000/svg" height="383.4" width="286.63" version="1.1" xmlns:cc="http://creativecommons.org/ns#" xmlns:dc="http://purl.org/dc/elements/1.1/" viewBox="0 0 286.63078 383.40104">
 <metadata id="metadata7">
  <rdf:RDF>
   <cc:Work rdf:about="">
    <dc:format>image/svg+xml</dc:format>
    <dc:type rdf:resource="http://purl.org/dc/dcmitype/StillImage"/>
    <dc:title/>
   </cc:Work>
  </rdf:RDF>
 </metadata>
 <g id="layer1" transform="translate(-194.6 -281.69)">
  <path id="aspas" d="m302.61 525c1.028-0.16636 2.0351-0.43808 3.0232-0.82116 14.982-1.9337 18.139-13.335 23.669-22.995l10.113-42.043 8.7513-6.0129c3.1305 23.024 7.5706 26.604 11.862 32.367 16.922 12.05 33.854 20.371 50.824 13.816 14.514-1.9859 26.524-24.258 30.297-31.863 8.065-16.257-26.105-36.109-30.498-32.651-14.571 2.5853-19.791-3.7564-31.264-7.7966l-2.61-12.23c31.537-6.5656 33.816-21.99 43.954-35.212 3.6499-17.166 2.6406-33.378-7.0065-46.706-12.587-9.7294-24.925-15.623-36.598-11.246-26.594 3.9643-21.326 37.169-28.867 62.2l-9.5305 4.3493-10.32-25.964c-10.24-8.0359-20.379-16.237-33.772-19.12-16.449 0.67445-32.093 3.7439-43.372 19.772-18.425 26.349-6.8019 38.628 9.8623 48.546l42.656 4.3879 3.3422 11.229c-9.9848 3.1792-20.009 6.8132-30.922 20.836-8.2502 14.883-19.797 26.939-11.436 56.069 15.995 14.391 27.905 22.708 37.842 21.1z" fill-rule="evenodd" stroke="#000" stroke-width="1px">

<animateTransform attributeType="xml"

                    attributeName="transform"

                    type="rotate"

                    from="0 340 420"

                    to="360 340 420"
                   dur="2s"

                    repeatCount="indefinite"/>


</path>
  <g id="ventilador">
   <path id="path3387" d="m202.27 427.76c8.1464-105.2 70.95-138.13 136.43-143.57 91.977 0.25494 139 74.019 137.14 142.86-6.4198 56.978-22.996 128.94-133.57 142.86-91.363-8.6441-134.32-59.242-140-142.14z" stroke="#000" stroke-width="5" fill="none"/>
   <path id="path3389" d="m338.7 297.76c-69.801 10.712-109.01 38.069-121.43 127.14 1.6859 112.82 91.811 129.23 121.43 128.57 78.754-4.5428 117.18-50.48 123.57-129.29-7.5737-75.76-53.399-121.84-123.57-126.43z" stroke="#000" stroke-width="5" fill="none"/>
   <g>
    <rect id="rect3397" height="88.893" width="5.5558" y="298.93" x="337.41"/>
    <rect id="rect3397-7" height="88.893" width="5.5558" y="463.58" x="337.15"/>
    <rect id="rect3397-5" transform="rotate(89.488)" height="88.893" width="5.5558" y="-304.63" x="428.89"/>
    <rect id="rect3397-5-3" transform="rotate(89.488)" height="88.893" width="5.5558" y="-458.69" x="428.8"/>
    <rect id="rect3397-5-5" transform="matrix(-.70474 .70946 -.70946 -.70474 0 0)" height="88.893" width="5.5558" y="-507.42" x="58.344"/>
    <rect id="rect3397-5-5-6" transform="matrix(-.69407 .71991 -.69885 -.71527 0 0)" height="90.243" width="5.6413" y="-666.25" x="52.77"/>
    <rect id="rect3397-5-5-6-2" transform="matrix(.69081 .72303 -.72303 .69081 0 0)" height="88.893" width="5.5558" y="82.654" x="546.29"/>
    <rect id="rect3397-5-5-6-2-9" transform="matrix(.69081 .72303 -.72303 .69081 0 0)" height="88.893" width="5.5558" y="-73.953" x="536.65"/>
    <circle id="path4288" cy="424.94" cx="342.71" r="34.598"/>
   </g>
   <g>
    <circle id="path4288-2" cy="422.42" cx="339.68" r="28.284" fill="#fff"/>
    <path id="path4385" transform="matrix(-.99998 .0058043 -.044431 -.99901 0 0)" d="m-165.02-666.7a143.25 74.907 0 0 1 -142.11 74.905 143.25 74.907 0 0 1 -144.38 -73.706"/>
    <rect id="rect4427" height="75" width="12.5" y="567.4" x="333.7"/>
   </g>
   <g fill="#fff">
    <circle id="path4288-2-3" cy="611.85" cx="312.28" r="11.499"/>
    <circle id="path4288-2-3-62" cy="612.33" cx="367.46" r="11.499"/>
    <path id="path4523" d="m325.6 627.11a12.501 20.226 0 0 0 12.436 18.346 12.501 20.226 0 0 0 11.936 -14.227 13.587 21.984 0 0 1 -11.576 10.531 13.587 21.984 0 0 1 -12.795 -14.65z"/>
   </g>
   <rect id="rect5084" height="5.6254" width="285.68" y="659.21" x="195.55"/>
  </g>
  <g id="ojoIzquierdo">
   <circle id="path4288-2-3-6" cy="606.06" cx="309.82" r="4.3557"/>
   <circle id="path4288-2-3-0" cy="603.36" cx="307.99" r="1.5233" fill="#fff"/>

<animateTransform attributeType="xml"

                    attributeName="transform"

                    type="rotate"

                    from="0 310 610"
                    to="360 310 610"
                   dur="5s"

                    repeatCount="indefinite"/>  

</g>
  <g id="ojoDerecho">
   <circle id="path4288-2-3-6-6" cy="609.06" cx="368.02" r="4.3557"/>
   <circle id="path4288-2-3-0-1" cy="611.67" cx="370.49" r="1.5233" fill="#fff"/>
  </g>
 </g>
</svg>
