<?xml version="1.0" encoding="UTF-8" standalone="no"?>
<!-- Created with Inkscape (http://www.inkscape.org/) -->

<svg
   xmlns:dc="http://purl.org/dc/elements/1.1/"
   xmlns:cc="http://creativecommons.org/ns#"
   xmlns:rdf="http://www.w3.org/1999/02/22-rdf-syntax-ns#"
   xmlns:svg="http://www.w3.org/2000/svg"
   xmlns="http://www.w3.org/2000/svg"
   xmlns:sodipodi="http://sodipodi.sourceforge.net/DTD/sodipodi-0.dtd"
   xmlns:inkscape="http://www.inkscape.org/namespaces/inkscape"
   width="80.893578mm"
   height="108.20429mm"
   viewBox="0 0 286.63078 383.40104"
   id="svg2"
   version="1.1"
   inkscape:version="0.91 r13725"
   sodipodi:docname="ventiladorseparado.svg">
  <defs
     id="defs4">
    <inkscape:perspective
       sodipodi:type="inkscape:persp3d"
       inkscape:vp_x="0 : 234.99999 : 1"
       inkscape:vp_y="0 : 1000 : 0"
       inkscape:vp_z="599.99996 : 234.99999 : 1"
       inkscape:persp3d-origin="299.99998 : 156.66666 : 1"
       id="perspective4411" />
  </defs>
  <sodipodi:namedview
     id="base"
     pagecolor="#ffffff"
     bordercolor="#666666"
     borderopacity="1.0"
     inkscape:pageopacity="0.0"
     inkscape:pageshadow="2"
     inkscape:zoom="1.979899"
     inkscape:cx="200.35965"
     inkscape:cy="170.5327"
     inkscape:document-units="px"
     inkscape:current-layer="layer1"
     showgrid="false"
     fit-margin-top="0"
     fit-margin-left="0"
     fit-margin-right="0"
     fit-margin-bottom="0"
     inkscape:window-width="1920"
     inkscape:window-height="1056"
     inkscape:window-x="0"
     inkscape:window-y="24"
     inkscape:window-maximized="1" />
  <metadata
     id="metadata7">
    <rdf:RDF>
      <cc:Work
         rdf:about="">
        <dc:format>image/svg+xml</dc:format>
        <dc:type
           rdf:resource="http://purl.org/dc/dcmitype/StillImage" />
        <dc:title></dc:title>
      </cc:Work>
    </rdf:RDF>
  </metadata>
  <g
     inkscape:label="Capa 1"
     inkscape:groupmode="layer"
     id="layer1"
     transform="translate(-194.59623,-281.68699)">
    <path
       style="fill:#000000;fill-rule:evenodd;stroke:#000000;stroke-width:1px;stroke-linecap:butt;stroke-linejoin:miter;stroke-opacity:1"
       d="m 302.60612,525.00402 c 1.028,-0.16636 2.0351,-0.43808 3.02319,-0.82116 14.98196,-1.93371 18.13938,-13.33503 23.66861,-22.99482 l 10.11266,-42.04316 8.75131,-6.01293 c 3.13053,23.02376 7.57064,26.6038 11.86248,32.3671 16.92158,12.0503 33.8542,20.37087 50.82389,13.81565 14.5137,-1.98592 26.52402,-24.25761 30.29682,-31.86267 8.06495,-16.25701 -26.10462,-36.10889 -30.49841,-32.65131 -14.57109,2.58527 -19.79081,-3.75644 -31.26433,-7.79659 L 376.77311,414.762 c 31.53703,-6.56563 33.8155,-21.98961 43.95357,-35.212 3.6499,-17.1663 2.64058,-33.37752 -7.00652,-46.70623 -12.58658,-9.72941 -24.92526,-15.62327 -36.59833,-11.2459 -26.59377,3.96429 -21.32643,37.16861 -28.86694,62.20015 l -9.53048,4.3493 -10.31977,-25.96402 c -10.24022,-8.03594 -20.37912,-16.23686 -33.77163,-19.11981 -16.4488,0.67445 -32.09269,3.74386 -43.37217,19.7717 -18.42525,26.34907 -6.80191,38.62753 9.86227,48.54631 l 42.6559,4.38792 3.34224,11.22919 c -9.98482,3.17915 -20.00883,6.81318 -30.92152,20.836 -8.25022,14.88331 -19.79718,26.93916 -11.43609,56.06922 15.99476,14.39109 27.90522,22.70837 37.84248,21.10019 z"
       id="path3391"
       inkscape:connector-curvature="0" />
    <g
       id="g4231">
      <path
         sodipodi:nodetypes="ccccc"
         inkscape:connector-curvature="0"
         id="path3387"
         d="m 202.26839,427.75871 c 8.1464,-105.19628 70.95003,-138.12756 136.42857,-143.57143 91.9769,0.25494 138.99839,74.01865 137.14286,142.85714 -6.41975,56.97765 -22.9959,128.93705 -133.57143,142.85714 -91.36308,-8.64406 -134.31793,-59.24192 -140,-142.14285 z"
         style="fill:none;fill-rule:evenodd;stroke:#000000;stroke-width:5;stroke-linecap:butt;stroke-linejoin:miter;stroke-miterlimit:4;stroke-dasharray:none;stroke-opacity:1" />
      <path
         sodipodi:nodetypes="ccccc"
         inkscape:connector-curvature="0"
         id="path3389"
         d="m 338.69696,297.75871 c -69.80133,10.71156 -109.01434,38.06869 -121.42857,127.14285 1.68588,112.82017 91.81079,129.22903 121.42857,128.57143 78.75443,-4.54276 117.17606,-50.47971 123.57143,-129.28571 -7.57367,-75.75967 -53.39853,-121.83957 -123.57143,-126.42857 z"
         style="fill:none;fill-rule:evenodd;stroke:#000000;stroke-width:5;stroke-linecap:butt;stroke-linejoin:miter;stroke-miterlimit:4;stroke-dasharray:none;stroke-opacity:1" />
      <rect
         y="298.92792"
         x="337.40625"
         height="88.893425"
         width="5.5558391"
         id="rect3397"
         style="opacity:1;fill:#000000;fill-opacity:1;stroke:none;stroke-opacity:1" />
      <rect
         y="463.58282"
         x="337.15372"
         height="88.893425"
         width="5.5558391"
         id="rect3397-7"
         style="opacity:1;fill:#000000;fill-opacity:1;stroke:none;stroke-opacity:1" />
      <rect
         transform="matrix(0.00925296,0.99995719,-0.99995719,0.00925296,0,0)"
         y="-304.63388"
         x="428.88568"
         height="88.893425"
         width="5.5558391"
         id="rect3397-5"
         style="opacity:1;fill:#000000;fill-opacity:1;stroke:none;stroke-opacity:1" />
      <rect
         transform="matrix(0.00925296,0.99995719,-0.99995719,0.00925296,0,0)"
         y="-458.68958"
         x="428.79593"
         height="88.893425"
         width="5.5558391"
         id="rect3397-5-3"
         style="opacity:1;fill:#000000;fill-opacity:1;stroke:none;stroke-opacity:1" />
      <rect
         transform="matrix(-0.7047449,0.7094608,-0.7094608,-0.7047449,0,0)"
         y="-507.41595"
         x="58.343674"
         height="88.893425"
         width="5.5558391"
         id="rect3397-5-5"
         style="opacity:1;fill:#000000;fill-opacity:1;stroke:none;stroke-opacity:1" />
      <rect
         transform="matrix(-0.69406703,0.71991038,-0.69885073,-0.71526754,0,0)"
         y="-666.24652"
         x="52.770061"
         height="90.243019"
         width="5.6413126"
         id="rect3397-5-5-6"
         style="opacity:1;fill:#000000;fill-opacity:1;stroke:none;stroke-opacity:1" />
      <rect
         transform="matrix(0.69081245,0.72303399,-0.72303399,0.69081245,0,0)"
         y="82.653748"
         x="546.28821"
         height="88.893425"
         width="5.5558391"
         id="rect3397-5-5-6-2"
         style="opacity:1;fill:#000000;fill-opacity:1;stroke:none;stroke-opacity:1" />
      <rect
         transform="matrix(0.69081245,0.72303399,-0.72303399,0.69081245,0,0)"
         y="-73.952919"
         x="536.64606"
         height="88.893425"
         width="5.5558391"
         id="rect3397-5-5-6-2-9"
         style="opacity:1;fill:#000000;fill-opacity:1;stroke:none;stroke-opacity:1" />
      <circle
         r="34.597725"
         cy="424.94449"
         cx="342.70959"
         id="path4288"
         style="opacity:1;fill:#000000;fill-opacity:1;stroke:none;stroke-width:5;stroke-miterlimit:4;stroke-dasharray:none;stroke-opacity:1" />
      <circle
         r="28.284273"
         cy="422.41907"
         cx="339.67908"
         id="path4288-2"
         style="opacity:1;fill:#ffffff;fill-opacity:1;stroke:none;stroke-width:5;stroke-miterlimit:4;stroke-dasharray:none;stroke-opacity:1" />
      <path
         transform="matrix(-0.99998316,0.00580426,-0.04443115,-0.99901245,0,0)"
         d="m -165.01523,-666.70422 a 143.25214,74.907494 0 0 1 -142.10583,74.90509 143.25214,74.907494 0 0 1 -144.3801,-73.70631"
         sodipodi:open="true"
         sodipodi:end="3.1255885"
         sodipodi:start="0"
         sodipodi:ry="74.907494"
         sodipodi:rx="143.25214"
         sodipodi:cy="-666.70422"
         sodipodi:cx="-308.26736"
         sodipodi:type="arc"
         id="path4385"
         style="opacity:1;fill:#000000;fill-opacity:1;stroke:none;stroke-width:5;stroke-miterlimit:4;stroke-dasharray:none;stroke-opacity:1" />
      <rect
         y="567.40155"
         x="333.69699"
         height="75"
         width="12.5"
         id="rect4427"
         style="opacity:1;fill:#000000;fill-opacity:1;stroke:none;stroke-width:5;stroke-miterlimit:4;stroke-dasharray:none;stroke-opacity:1" />
      <circle
         r="11.498559"
         cy="611.85321"
         cx="312.28021"
         id="path4288-2-3"
         style="opacity:1;fill:#ffffff;fill-opacity:1;stroke:none;stroke-width:5;stroke-miterlimit:4;stroke-dasharray:none;stroke-opacity:1" />
      <circle
         r="11.498559"
         cy="612.32776"
         cx="367.45828"
         id="path4288-2-3-62"
         style="opacity:1;fill:#ffffff;fill-opacity:1;stroke:none;stroke-width:5;stroke-miterlimit:4;stroke-dasharray:none;stroke-opacity:1" />
      <path
         inkscape:connector-curvature="0"
         id="path4523"
         d="m 325.60217,627.11198 a 12.500638,20.226458 0 0 0 12.43555,18.34571 12.500638,20.226458 0 0 0 11.93555,-14.22657 13.587167,21.984499 0 0 1 -11.57617,10.53125 13.587167,21.984499 0 0 1 -12.79493,-14.65039 z"
         style="opacity:1;fill:#ffffff;fill-opacity:1;stroke:none;stroke-width:5;stroke-miterlimit:4;stroke-dasharray:none;stroke-opacity:1" />
      <rect
         y="659.20917"
         x="195.54947"
         height="5.6253672"
         width="285.67755"
         id="rect5084"
         style="opacity:1;fill:#000000;fill-opacity:1;stroke:none;stroke-width:5;stroke-miterlimit:4;stroke-dasharray:none;stroke-opacity:1" />
    </g>
    <circle
       style="opacity:1;fill:#000000;fill-opacity:1;stroke:none;stroke-width:5;stroke-miterlimit:4;stroke-dasharray:none;stroke-opacity:1"
       id="path4288-2-3-6"
       cx="309.81607"
       cy="606.06274"
       r="4.3557019" />
    <circle
       style="opacity:1;fill:#ffffff;fill-opacity:1;stroke:none;stroke-width:5;stroke-miterlimit:4;stroke-dasharray:none;stroke-opacity:1"
       id="path4288-2-3-0"
       cx="307.98557"
       cy="603.36273"
       r="1.5233026" />
    <circle
       style="opacity:1;fill:#000000;fill-opacity:1;stroke:none;stroke-width:5;stroke-miterlimit:4;stroke-dasharray:none;stroke-opacity:1"
       id="path4288-2-3-6-6"
       cx="368.0246"
       cy="609.06268"
       r="4.3557019" />
    <circle
       style="opacity:1;fill:#ffffff;fill-opacity:1;stroke:none;stroke-width:5;stroke-miterlimit:4;stroke-dasharray:none;stroke-opacity:1"
       id="path4288-2-3-0-1"
       cx="370.48727"
       cy="611.66595"
       r="1.5233026" />
  </g>
</svg>
